<svg xmlns="http://www.w3.org/2000/svg" style="display: none;">
	<symbol id="svg-description" viewBox="0 0 59 42" preserveAspectRatio="xMinYMin meet">
		<g id="Page-1" stroke="none" stroke-width="1" >
	        <g id="mmqt" transform="translate(-327.000000, -110.000000)">
	            <g id="result" transform="translate(327.000000, 110.000000)">
	                <path d="M1.4488,41.981 C1.541848,41.962841 10.8182,40.2812 15.3648,40.2812 C19.9111,40.2812 29.1878,41.9628 29.2808,41.981 C29.354058,41.994218 29.42719,42.000271 29.50045,42.000271 C29.545192,42.000271 29.586983,41.982112 29.63111,41.977295 C29.661102,41.9742068 29.690233,41.9863127 29.720102,41.9810009 C29.81315,41.9628419 39.089502,40.2812009 43.636102,40.2812009 C48.182402,40.2812009 57.459102,41.9628009 57.552102,41.9810009 C57.62536,41.9942189 57.698492,42.0002719 57.771752,42.0002719 C58.057412,42.0002719 58.336552,41.9000919 58.559742,41.7131919 C58.839502,41.4791019 59.000922,41.1317419 59.000922,40.7649819 L59.000922,2.9549819 C59.000922,2.3578419 58.576002,1.8462819 57.991422,1.7389819 C57.601902,1.6690639 48.404122,0.0006819 43.636422,0.0006819 C39.205322,0.0006819 30.957422,1.4401819 29.501422,1.6996819 C28.045022,1.4401419 19.797122,0.0006819 15.366422,0.0006819 C10.598622,0.0006819 1.400422,1.6690819 1.011422,1.7389819 C0.426832,1.8463319 0.001922,2.3578619 0.001922,2.9549819 L0.001922,40.7649819 C0.001922,41.1317419 0.163312,41.4791019 0.443072,41.7131919 C0.723932,41.9471519 1.091212,42.0448719 1.450772,41.9810019 L1.4488,41.981 Z M56.5418,3.993 L56.5418,39.297 C53.6879,38.81326 47.3308,37.8108 43.6358,37.8108 C39.9405,37.8108 33.5838,38.8132 30.7298,39.297 L30.7298,3.993 C33.2704,3.55756 39.9816,2.4706 43.6358,2.4706 C47.2902,2.4706 54.0018,3.5575 56.5418,3.993 Z M2.4588,3.993 C4.9994,3.55756 11.7106,2.4706 15.3648,2.4706 C19.019,2.4706 25.7308,3.5575 28.2708,3.993 L28.2708,39.297 C25.4169,38.81326 19.0598,37.8108 15.3648,37.8108 C11.6696,37.8108 5.3128,38.8132 2.4588,39.297 L2.4588,3.993 Z" id="Shape"></path>
	            </g>
	        </g>
	    </g>
    </symbol>
	<symbol id="svg-inital-grid" viewBox="0 0 46 25" preserveAspectRatio="xMinYMin meet">
		<g stroke-width="1" fill="none" fill-rule="evenodd">
	        <g id="mmqt" transform="translate(-186.000000, -304.000000)">
	            <g id="Group-5" transform="translate(186.000000, 304.000000)">
	                <g id="Group-4">
	                    <g id="Group-2">
	                        <rect id="Rectangle" x="0.5" y="0.5" width="13" height="24"></rect>
	                    </g>
	                </g>
	                <g id="Group-4" transform="translate(16.000000, 0.000000)">
	                    <g id="Group-2">
	                        <rect id="Rectangle" x="0.5" y="0.5" width="13" height="10.5"></rect>
	                    </g>
	                </g>
	                <g id="Group-4" transform="translate(16.000000, 14.000000)">
	                    <g id="Group-2">
	                        <rect id="Rectangle" x="0.5" y="0.5" width="13" height="10"></rect>
	                    </g>
	                </g>
	                <g id="Group-4" transform="translate(32.000000, 0.000000)">
	                    <g id="Group-2">
	                        <rect id="Rectangle" x="0.5" y="0.5" width="13" height="24"></rect>
	                    </g>
	                </g>
	            </g>
	        </g>
	    </g>
    </symbol>
	<symbol id="svg-arrow-down" viewBox="0 0 60 60">
		<path d="M30,32.83l9.9-9.9a2,2,0,1,1,2.83,2.83L31.41,37.07a2,2,0,0,1-2.82,0L17.27,25.76a2,2,0,0,1,2.83-2.83Z"/>
	</symbol>
</svg>